<svg xmlns="http://www.w3.org/2000/svg" version="1.1" xmlns:xlink="http://www.w3.org/1999/xlink" xmlns:svgjs="http://svgjs.dev/svgjs" width="1536" height="695" preserveAspectRatio="none" viewBox="0 0 1536 695"><g mask="url(&quot;#SvgjsMask1113&quot;)" fill="none"><rect width="1536" height="695" x="0" y="0" fill="rgba(4, 90, 85, 1)"></rect><path d="M1270.209,825.483C1326.99,823.385,1380.636,793.28,1405.778,742.325C1428.64,695.992,1409.824,643.018,1381.594,599.746C1356.397,561.124,1316.23,537.445,1270.209,534.524C1217.653,531.188,1161.66,540.825,1131.308,583.86C1096.334,633.449,1085.862,700.419,1116.104,753.027C1146.425,805.771,1209.412,827.729,1270.209,825.483" fill="rgba(133, 255, 247, 0.29)" class="triangle-float1"></path><path d="M1297.2786063207866 192.60359633670296L1244.1971336962995 60.86099757107917 1166.0604899990012 157.3517166940652z" fill="rgba(133, 255, 247, 0.29)" class="triangle-float2"></path><path d="M263.0729488120478 449.19907257225657L299.0261097302922 618.3453959591527 468.17243311718823 582.3922350409083 432.2192721989439 413.24591165401216z" fill="rgba(133, 255, 247, 0.29)" class="triangle-float2"></path><path d="M541.82 231.9 a169.48 169.48 0 1 0 338.96 0 a169.48 169.48 0 1 0 -338.96 0z" fill="rgba(133, 255, 247, 0.29)" class="triangle-float1"></path><path d="M1245.444841448535 764.1109607521713L1242.8529073791065 615.6191573651505 1094.3611039920856 618.2110914345791 1096.9530380615142 766.7028948215999z" fill="rgba(133, 255, 247, 0.29)" class="triangle-float2"></path><path d="M1339.416,575.255C1396.251,572.299,1438.829,528.167,1465.497,477.89C1490.266,431.192,1494.652,376.486,1469.51,329.988C1443.078,281.103,1394.943,246.977,1339.416,244.713C1279.774,242.281,1220.636,267.613,1189.548,318.571C1157.221,371.56,1157.07,438.703,1188.367,492.306C1219.409,545.473,1277.933,578.453,1339.416,575.255" fill="rgba(133, 255, 247, 0.29)" class="triangle-float3"></path><path d="M600.5762007216814 201.56776097643913L649.4755359615089 352.5538994217793 744.0925843415118 251.08953730417238z" fill="rgba(133, 255, 247, 0.29)" class="triangle-float2"></path><path d="M103.0831153169883 413.1933345540738L166.34563145184913 446.8306110536157 185.17028813373165 335.1181986015535z" fill="rgba(133, 255, 247, 0.29)" class="triangle-float3"></path><path d="M418.98 264.48 a182.59 182.59 0 1 0 365.18 0 a182.59 182.59 0 1 0 -365.18 0z" fill="rgba(133, 255, 247, 0.29)" class="triangle-float2"></path><path d="M17.447,272.956C43.033,274.721,71.094,269.27,84.542,247.432C98.481,224.797,93.539,195.4,78.851,173.243C65.608,153.266,41.408,146.791,17.447,146.219C-7.866,145.615,-36.748,148.169,-49.25,170.187C-61.663,192.049,-49.011,218.074,-35.325,239.162C-23.137,257.942,-4.888,271.415,17.447,272.956" fill="rgba(133, 255, 247, 0.29)" class="triangle-float1"></path></g><defs><mask id="SvgjsMask1113"><rect width="1536" height="695" fill="#ffffff"></rect></mask><style>
                @keyframes float1 {
                    0%{transform: translate(0, 0)}
                    50%{transform: translate(-10px, 0)}
                    100%{transform: translate(0, 0)}
                }

                .triangle-float1 {
                    animation: float1 5s infinite;
                }

                @keyframes float2 {
                    0%{transform: translate(0, 0)}
                    50%{transform: translate(-5px, -5px)}
                    100%{transform: translate(0, 0)}
                }

                .triangle-float2 {
                    animation: float2 4s infinite;
                }

                @keyframes float3 {
                    0%{transform: translate(0, 0)}
                    50%{transform: translate(0, -10px)}
                    100%{transform: translate(0, 0)}
                }

                .triangle-float3 {
                    animation: float3 6s infinite;
                }
            </style></defs></svg>