<svg xmlns="http://www.w3.org/2000/svg" version="1.1" xmlns:xlink="http://www.w3.org/1999/xlink" xmlns:svgjs="http://svgjs.dev/svgjs" width="1440" height="560" preserveAspectRatio="none" viewBox="0 0 1440 560"><g mask="url(&quot;#SvgjsMask1007&quot;)" fill="none"><rect width="1440" height="560" x="0" y="0" fill="rgba(6, 129, 109, 1)"></rect><path d="M0,560.718C102.601,548.95,168.947,451.593,263.44,409.921C382.383,357.466,551.148,392.496,624.62,285.254C696.276,180.663,642.862,33.793,603.75,-86.806C568.927,-194.18,502.094,-287.663,415.376,-359.925C337.273,-425.009,235.485,-441.42,139.163,-473.947C38.288,-508.011,-62.473,-590.222,-163.036,-555.249C-263.848,-520.189,-272.368,-376.435,-350.455,-303.671C-442.918,-217.511,-624.168,-216.449,-657.459,-94.528C-689.667,23.429,-559.397,122.098,-495.113,226.111C-439.11,316.725,-393.627,415.518,-305.369,475.164C-215.974,535.579,-107.192,573.013,0,560.718" fill="#056757"></path><path d="M1440 896.2629999999999C1500.624 883.821 1533.677 819.297 1589.592 792.77 1657.883 760.3720000000001 1764.443 791.0070000000001 1801.146 724.9300000000001 1836.903 660.556 1769.1779999999999 585.284 1743.09 516.422 1722.564 462.242 1702.038 409.594 1664.849 365.16700000000003 1627.147 320.128 1579.421 288.396 1528.18 259.686 1463.578 223.49 1401.021 169.562 1327.252 176.01600000000002 1250.2640000000001 182.75099999999998 1182.83 234.92000000000002 1133.288 294.233 1084.228 352.969 1047.703 428.012 1053.002 504.358 1058.008 576.48 1126.513 623.841 1160.59 687.602 1191.876 746.139 1191.77 823.789 1244.95 863.504 1298.865 903.767 1374.084 909.7919999999999 1440 896.2629999999999" fill="#079b83"></path></g><defs><mask id="SvgjsMask1007"><rect width="1440" height="560" fill="#ffffff"></rect></mask></defs></svg>